<svg xmlns="http://www.w3.org/2000/svg" viewBox="0 0 1280 320">
  <defs>
    <linearGradient id="bg" x1="0" y1="0" x2="1" y2="1">
      <stop offset="0" stop-color="#0A0718"></stop>
      <stop offset="1" stop-color="#140F2A"></stop>
    </linearGradient>
  </defs>
  <rect x="0" y="0" width="1280" height="320" rx="16" fill="url(#bg)"></rect>
  <g transform="translate(0,0)" fill="none">
    <circle cx="898" cy="104" r="5" fill="#5A3EF0" opacity="0.16"></circle>
    <path d="M906 103 Q962 90 1006 90" stroke="#5A3EF0" stroke-width="2.5" stroke-linecap="round" opacity="0.16"></path>
    <polyline points="1010,90 1022,76 1034,102 1046,90" stroke="#FFD23F" stroke-width="2.5" stroke-linecap="round" stroke-linejoin="round" opacity="0.4"></polyline>
    <path d="M1050 90 Q1096 92 1128 96" stroke="#5A3EF0" stroke-width="2.5" stroke-linecap="round" opacity="0.16"></path>
    <circle cx="1148" cy="99" r="8.5" stroke="#5A3EF0" stroke-width="3" opacity="0.16"></circle>
    <g opacity="0.10">
      <circle cx="964" cy="232" r="4" fill="#5A3EF0"></circle>
      <path d="M972 231 Q1040 222 1102 226" stroke="#5A3EF0" stroke-width="2" stroke-linecap="round"></path>
      <path d="M1120 227 Q1136 229 1148 231" stroke="#5A3EF0" stroke-width="2" stroke-linecap="round"></path>
      <circle cx="1166" cy="234" r="7" stroke="#5A3EF0" stroke-width="3"></circle>
    </g>
  </g>
  <g transform="translate(72,56) scale(0.8125)">
    <path d="M179.3 64.4 A42 42 0 1 0 108.3 108.1" fill="none" stroke="#5A3EF0" stroke-width="26" stroke-linecap="round"></path>
  <circle cx="179.3" cy="64.4" r="20" fill="#5A3EF0"></circle>
  <path d="M177.4 141.9 A46 46 0 0 1 107 200.9" fill="none" stroke="#5A3EF0" stroke-width="26" stroke-linecap="round"></path>
  <circle cx="85.7" cy="177.8" r="22.5" fill="none" stroke="#5A3EF0" stroke-width="14"></circle>
  <polyline points="101,121 119,115 134,84 149,160 161,131 174,133" fill="none" stroke="#0A0718" stroke-width="19" stroke-linecap="round" stroke-linejoin="round">
  </polyline>
  <polyline points="101,121 119,115 134,84 149,160 161,131 174,133" fill="none" stroke="#FFD23F" stroke-width="11" stroke-linecap="round" stroke-linejoin="round">
  </polyline>
  </g>
<path fill="#F3F0FF" d="M360.5 169.2C371.3 169.2 378.3 164.2 378.3 155.5C378.3 146.7 370.8 143.9 361.4 142.2L358.4 141.7C353.6 140.8 350.7 139.5 350.7 136C350.7 132.7 353.6 130.8 358.6 130.8C363.7 130.8 367.3 132.7 368.3 138L376.7 135.6C374.9 128 368.4 123.4 358.6 123.4C348.5 123.4 341.9 128.1 341.9 136.3C341.9 144.5 348.9 147.9 357.7 149.5L360.8 150C366.4 151.1 369.4 152.4 369.4 155.9C369.4 159.6 366.2 161.9 360.5 161.9C354.7 161.9 349.7 159.6 348.5 152.3L340 154.4C341.6 164.3 349.4 169.2 360.5 169.2Z M392.1 185.6H419.1C424.4 185.6 427.8 182.3 427.8 176.9V124.6H418.7V146.6C418.7 155.9 413.9 161 406.4 161C399.7 161 395.8 157.6 395.8 150V124.6H386.7V150.8C386.7 161.9 393.8 168.8 403.8 168.8C412 168.8 415.8 165.1 417.4 161.7H418.8V175C418.8 176.8 418 177.7 416.3 177.7H392.1Z M439.4 168H448.5V146.1C448.5 136.8 453.4 131.7 460.9 131.7C467.5 131.7 471.4 135.1 471.4 142.7V168H480.5V142C480.5 130.8 473.4 123.9 463.5 123.9C455.2 123.9 451.4 127.6 449.7 131.1H448.3V124.6H439.4Z M505.2 169.2C514.2 169.2 517.4 164.7 518.7 161.8H520.1V162.1C520.1 165.7 522.9 168 527 168H533.7V160.4H530C528.5 160.4 527.6 159.6 527.6 157.8V139.9C527.6 129.4 520.7 123.4 509.4 123.4C498.4 123.4 492.6 129.3 490.5 136.1L499 138.9C500 134.2 503.1 131 509.4 131C515.7 131 518.7 134.3 518.7 139.3V142.1H505.5C496 142.1 488.9 146.7 488.9 155.5C488.9 164.3 496 169.2 505.2 169.2ZM506.5 161.8C501.2 161.8 498 159.2 498 155.2C498 151.3 501.2 149.2 506 149.2H518.7V150C518.7 157.4 513.8 161.8 506.5 161.8Z M540.8 185.6H549.8V162.1H551.2C553.3 165.6 557.4 169.2 565.9 169.2C576.8 169.2 585.9 161 585.9 147V145.6C585.9 131.7 576.7 123.4 565.9 123.4C557.4 123.4 553.3 127 551.1 130.9H549.7V124.6H540.8ZM563.2 161.3C555.4 161.3 549.8 156 549.8 146.7V145.9C549.8 136.6 555.5 131.4 563.2 131.4C571 131.4 576.8 136.6 576.8 145.9V146.7C576.8 156 571.1 161.3 563.2 161.3Z M613.2 169.2C624 169.2 631.1 164.2 631.1 155.5C631.1 146.7 623.6 143.9 614.2 142.2L611.1 141.7C606.3 140.8 603.4 139.5 603.4 136C603.4 132.7 606.3 130.8 611.4 130.8C616.5 130.8 620.1 132.7 621 138L629.5 135.6C627.6 128 621.1 123.4 611.4 123.4C601.2 123.4 594.6 128.1 594.6 136.3C594.6 144.5 601.7 147.9 610.5 149.5L613.6 150C619.2 151.1 622.2 152.4 622.2 155.9C622.2 159.6 618.9 161.9 613.2 161.9C607.4 161.9 602.5 159.6 601.2 152.3L592.8 154.4C594.4 164.3 602.1 169.2 613.2 169.2Z M659.8 169.2C671.5 169.2 676.6 162.6 679.2 157.6L671.6 153.7C669.8 157.8 666.8 161.3 659.9 161.3C652.6 161.3 647.3 156.5 647 148.8H680.3V145.4C680.3 132.2 671.9 123.4 659.4 123.4C646.6 123.4 637.8 132.3 637.8 145.8V146.9C637.8 160.3 646.6 169.2 659.8 169.2ZM647.1 141.9C648 135.4 652.4 131.4 659.3 131.4C666.1 131.4 670.7 135.4 671.2 141.9Z"/>
<path fill="#B7A8FF" d="M342.1 220H344.9V209.8C344.9 208.4 344.8 205.9 344.8 204C345.5 206.3 346.3 208.7 346.7 209.8L350.6 220H353.1L357 209.8C357.4 208.6 358.2 206.2 358.9 203.9C358.8 206 358.8 208.4 358.8 209.8V220H361.6V201.1H357.4L353.3 211.9C352.9 213 352.3 215.1 351.9 216.8C351.5 215 350.9 213 350.5 211.9L346.4 201.1H342.1Z M371.6 220.3C375.6 220.3 378.2 217.4 378.2 213C378.2 208.6 375.6 205.6 371.6 205.6C367.6 205.6 364.9 208.6 364.9 213C364.9 217.4 367.6 220.3 371.6 220.3ZM371.6 217.9C369 217.9 367.8 215.7 367.8 213C367.8 210.2 369 208 371.6 208C374.2 208 375.4 210.3 375.4 213C375.4 215.7 374.2 217.9 371.6 217.9Z M381.3 220H384.1V211.4C384.1 209.5 385.5 208.2 387.5 208.2C388.1 208.2 388.7 208.3 388.9 208.3V205.7C388.6 205.6 388.1 205.6 387.8 205.6C386.1 205.6 384.7 206.5 384.2 208.1H384V205.8H381.3Z M397 220.3C400 220.3 402.2 218.8 402.9 216.6L400.2 216C399.7 217.3 398.6 218 397 218C394.7 218 393.1 216.5 393 213.8H403.1V212.8C403.1 207.6 400 205.6 396.7 205.6C392.8 205.6 390.2 208.6 390.2 213C390.2 217.4 392.8 220.3 397 220.3ZM393 211.7C393.2 209.6 394.5 207.9 396.8 207.9C398.9 207.9 400.1 209.4 400.3 211.7Z M419 220.3C422 220.3 424.3 218.7 425 216L422.4 215.4C422 216.9 420.8 217.9 419.1 217.9C416.5 217.9 415.3 215.7 415.3 213C415.3 210.2 416.5 208 419.1 208C420.8 208 421.9 209 422.3 210.5L425 209.8C424.3 207.2 422 205.6 419 205.6C415 205.6 412.4 208.6 412.4 213C412.4 217.4 415 220.3 419 220.3Z M434 220.3C438 220.3 440.7 217.4 440.7 213C440.7 208.6 438 205.6 434 205.6C430 205.6 427.4 208.6 427.4 213C427.4 217.4 430 220.3 434 220.3ZM434 217.9C431.5 217.9 430.3 215.7 430.3 213C430.3 210.2 431.5 208 434 208C436.6 208 437.9 210.3 437.9 213C437.9 215.7 436.6 217.9 434 217.9Z M446.6 211.6C446.6 209.3 448 208.1 449.9 208.1C451.7 208.1 452.9 209.3 452.9 211.3V220H455.7V211C455.7 207.5 453.7 205.6 450.8 205.6C448.8 205.6 447.4 206.5 446.5 208.5L446.5 205.8H443.8V220H446.6Z M462.2 211.6C462.2 209.3 463.6 208.1 465.5 208.1C467.4 208.1 468.5 209.3 468.5 211.3V220H471.3V211C471.3 207.5 469.4 205.6 466.5 205.6C464.5 205.6 463 206.5 462.1 208.5L462.1 205.8H459.4V220H462.2Z M481.2 220.3C484.2 220.3 486.4 218.8 487.1 216.6L484.4 216C483.9 217.3 482.8 218 481.2 218C478.9 218 477.3 216.5 477.2 213.8H487.3V212.8C487.3 207.6 484.2 205.6 480.9 205.6C477 205.6 474.4 208.6 474.4 213C474.4 217.4 477 220.3 481.2 220.3ZM477.2 211.7C477.4 209.6 478.7 207.9 481 207.9C483.1 207.9 484.3 209.4 484.5 211.7Z M496.3 220.3C499.3 220.3 501.6 218.7 502.3 216L499.6 215.4C499.3 216.9 498.1 217.9 496.3 217.9C493.8 217.9 492.5 215.7 492.5 213C492.5 210.2 493.8 208 496.3 208C498.1 208 499.2 209 499.6 210.5L502.2 209.8C501.5 207.2 499.2 205.6 496.3 205.6C492.3 205.6 489.7 208.6 489.7 213C489.7 217.4 492.3 220.3 496.3 220.3Z M511.4 205.8H508.6V202.4H505.8V205.8H503.7V208.1H505.8V216.4C505.8 218.8 507.3 220.2 509.9 220.2C510.5 220.2 511.2 220.1 511.8 219.9L511.3 217.7C511 217.7 510.4 217.8 510.1 217.8C509 217.8 508.6 217.3 508.6 216.2V208.1H511.4Z M514.2 220H517V205.8H514.2ZM515.6 203.6C516.6 203.6 517.4 202.9 517.4 202C517.4 201.1 516.6 200.3 515.6 200.3C514.6 200.3 513.8 201.1 513.8 202C513.8 202.9 514.6 203.6 515.6 203.6Z M526.7 220.3C530.7 220.3 533.3 217.4 533.3 213C533.3 208.6 530.7 205.6 526.7 205.6C522.7 205.6 520.1 208.6 520.1 213C520.1 217.4 522.7 220.3 526.7 220.3ZM526.7 217.9C524.1 217.9 522.9 215.7 522.9 213C522.9 210.2 524.1 208 526.7 208C529.3 208 530.5 210.3 530.5 213C530.5 215.7 529.3 217.9 526.7 217.9Z M539.2 211.6C539.2 209.3 540.6 208.1 542.5 208.1C544.4 208.1 545.5 209.3 545.5 211.3V220H548.3V211C548.3 207.5 546.4 205.6 543.5 205.6C541.5 205.6 540 206.5 539.1 208.5L539.1 205.8H536.4V220H539.2Z M557.2 220.3C560.6 220.3 563 218.5 563 215.9C563 213.9 561.8 212.6 559.2 212L556.9 211.5C555.3 211.2 554.7 210.6 554.7 209.7C554.7 208.6 555.8 207.8 557.4 207.8C559.1 207.8 559.9 208.7 560.2 209.7L562.7 209.2C562.1 207.1 560.4 205.6 557.4 205.6C554.1 205.6 551.9 207.3 551.9 209.9C551.9 211.9 553.1 213.2 555.8 213.8L558.2 214.3C559.5 214.6 560.1 215.2 560.1 216.1C560.1 217.2 559 218 557.2 218C555.6 218 554.5 217.3 554.1 215.9L551.5 216.4C552 218.9 554.1 220.3 557.2 220.3Z M568.2 220.2C569.2 220.2 570 219.4 570 218.3C570 217.3 569.2 216.4 568.2 216.4C567.1 216.4 566.3 217.3 566.3 218.3C566.3 219.4 567.1 220.2 568.2 220.2Z M580.9 220H588.1C592.5 220 594.5 217.8 594.5 214.9C594.5 212 592.5 210.3 590.6 210.2V210C592.3 209.6 593.8 208.4 593.8 206C593.8 203.3 591.8 201.1 587.8 201.1H580.9ZM583.8 217.5V211.5H588C590.2 211.5 591.6 213 591.6 214.8C591.6 216.3 590.6 217.5 587.8 217.5ZM583.8 209.3V203.6H587.6C589.9 203.6 590.9 204.7 590.9 206.3C590.9 208.1 589.5 209.3 587.5 209.3Z M597.7 220H600.5V211.4C600.5 209.5 601.9 208.2 603.9 208.2C604.5 208.2 605.1 208.3 605.3 208.3V205.7C605.1 205.6 604.5 205.6 604.2 205.6C602.5 205.6 601.1 206.5 600.6 208.1H600.4V205.8H597.7Z M608 220H610.8V205.8H608ZM609.4 203.6C610.3 203.6 611.1 202.9 611.1 202C611.1 201.1 610.3 200.3 609.4 200.3C608.4 200.3 607.6 201.1 607.6 202C607.6 202.9 608.4 203.6 609.4 203.6Z M620.5 225.6C624.1 225.6 626.9 223.9 626.9 220.2V205.8H624.1V208.1H623.9C623.4 207.2 622.4 205.6 619.8 205.6C616.4 205.6 613.9 208.3 613.9 212.9C613.9 217.4 616.5 219.8 619.8 219.8C622.4 219.8 623.4 218.3 623.9 217.4H624.1V220.2C624.1 222.4 622.6 223.4 620.5 223.4C618.2 223.4 617.3 222.2 616.8 221.4L614.4 222.5C615.2 224.2 617.2 225.6 620.5 225.6ZM620.4 217.5C618 217.5 616.7 215.6 616.7 212.8C616.7 210.1 618 208 620.4 208C622.8 208 624.1 210 624.1 212.8C624.1 215.7 622.8 217.5 620.4 217.5Z M633.4 211.6C633.4 209.3 634.8 208.1 636.7 208.1C638.6 208.1 639.7 209.3 639.7 211.3V220H642.5V211C642.5 207.5 640.6 205.6 637.7 205.6C635.8 205.6 634.3 206.5 633.4 208.4V201.1H630.6V220H633.4Z M652.3 205.8H649.5V202.4H646.7V205.8H644.6V208.1H646.7V216.4C646.7 218.8 648.2 220.2 650.8 220.2C651.4 220.2 652.1 220.1 652.7 219.9L652.2 217.7C651.9 217.7 651.4 217.8 651.1 217.8C650 217.8 649.5 217.3 649.5 216.2V208.1H652.3Z M661 220.3C664 220.3 666.2 218.8 666.9 216.6L664.2 216C663.7 217.3 662.6 218 661 218C658.7 218 657.1 216.5 657 213.8H667.1V212.8C667.1 207.6 664 205.6 660.7 205.6C656.8 205.6 654.2 208.6 654.2 213C654.2 217.4 656.8 220.3 661 220.3ZM657 211.7C657.2 209.6 658.5 207.9 660.8 207.9C662.9 207.9 664.1 209.4 664.3 211.7Z M670.1 220H672.9V211.4C672.9 209.5 674.4 208.2 676.3 208.2C676.9 208.2 677.6 208.3 677.8 208.3V205.7C677.5 205.6 676.9 205.6 676.6 205.6C674.9 205.6 673.5 206.5 673 208.1H672.8V205.8H670.1Z M693.2 205.8H690.4V202.4H687.6V205.8H685.5V208.1H687.6V216.4C687.6 218.8 689.1 220.2 691.6 220.2C692.3 220.2 693 220.1 693.6 219.9L693.1 217.7C692.8 217.7 692.2 217.8 691.9 217.8C690.8 217.8 690.4 217.3 690.4 216.2V208.1H693.2Z M698.8 211.6C698.8 209.3 700.2 208.1 702.1 208.1C703.9 208.1 705.1 209.3 705.1 211.3V220H707.9V211C707.9 207.5 706 205.6 703.1 205.6C701.1 205.6 699.7 206.5 698.8 208.4V201.1H696V220H698.8Z M717.6 220.3C721.6 220.3 724.2 217.4 724.2 213C724.2 208.6 721.6 205.6 717.6 205.6C713.6 205.6 711 208.6 711 213C711 217.4 713.6 220.3 717.6 220.3ZM717.6 217.9C715 217.9 713.8 215.7 713.8 213C713.8 210.2 715 208 717.6 208C720.2 208 721.4 210.3 721.4 213C721.4 215.7 720.2 217.9 717.6 217.9Z M732.2 220.2C734.1 220.2 735.7 219.3 736.6 217.2L736.6 220H739.2V205.8H736.4V214.2C736.4 216.5 735 217.7 733.1 217.7C731.3 217.7 730.1 216.5 730.1 214.5V205.8H727.3V214.8C727.3 218.3 729.3 220.2 732.2 220.2Z M748.9 225.6C752.6 225.6 755.3 223.9 755.3 220.2V205.8H752.6V208.1H752.4C751.9 207.2 750.9 205.6 748.3 205.6C744.9 205.6 742.3 208.3 742.3 212.9C742.3 217.4 744.9 219.8 748.3 219.8C750.8 219.8 751.8 218.3 752.3 217.4H752.6V220.2C752.6 222.4 751.1 223.4 748.9 223.4C746.6 223.4 745.7 222.2 745.2 221.4L742.9 222.5C743.7 224.2 745.6 225.6 748.9 225.6ZM748.9 217.5C746.5 217.5 745.2 215.6 745.2 212.8C745.2 210.1 746.4 208 748.9 208C751.3 208 752.6 210 752.6 212.8C752.6 215.7 751.3 217.5 748.9 217.5Z M761.9 211.6C761.9 209.3 763.3 208.1 765.2 208.1C767 208.1 768.2 209.3 768.2 211.3V220H771V211C771 207.5 769.1 205.6 766.2 205.6C764.2 205.6 762.8 206.5 761.9 208.4V201.1H759.1V220H761.9Z M780.8 205.8H778V202.4H775.2V205.8H773.1V208.1H775.2V216.4C775.2 218.8 776.7 220.2 779.2 220.2C779.9 220.2 780.6 220.1 781.2 219.9L780.7 217.7C780.4 217.7 779.8 217.8 779.5 217.8C778.4 217.8 778 217.3 778 216.2V208.1H780.8Z M788.4 220.3C791.9 220.3 794.3 218.5 794.3 215.9C794.3 213.9 793.1 212.6 790.4 212L788.1 211.5C786.6 211.2 785.9 210.6 785.9 209.7C785.9 208.6 787.1 207.8 788.7 207.8C790.3 207.8 791.1 208.7 791.5 209.7L794 209.2C793.4 207.1 791.7 205.6 788.6 205.6C785.4 205.6 783.1 207.3 783.1 209.9C783.1 211.9 784.4 213.2 787 213.8L789.4 214.3C790.8 214.6 791.4 215.2 791.4 216.1C791.4 217.2 790.3 218 788.5 218C786.8 218 785.7 217.3 785.4 215.9L782.7 216.4C783.2 218.9 785.4 220.3 788.4 220.3Z M799.4 220.2C800.5 220.2 801.3 219.4 801.3 218.3C801.3 217.3 800.5 216.4 799.4 216.4C798.4 216.4 797.6 217.3 797.6 218.3C797.6 219.4 798.4 220.2 799.4 220.2Z"/>
</svg>