<svg xmlns="http://www.w3.org/2000/svg" viewBox="0 0 1280 320">
  <defs>
    <linearGradient id="bg" x1="0" y1="0" x2="1" y2="1">
      <stop offset="0" stop-color="#0A0718"></stop>
      <stop offset="1" stop-color="#140F2A"></stop>
    </linearGradient>
  </defs>
  <rect x="0" y="0" width="1280" height="320" rx="16" fill="url(#bg)"></rect>
  <g transform="translate(0,0)" fill="none">
    <circle cx="898" cy="104" r="5" fill="#5A3EF0" opacity="0.16"></circle>
    <path d="M906 103 Q962 90 1006 90" stroke="#5A3EF0" stroke-width="2.5" stroke-linecap="round" opacity="0.16"></path>
    <polyline points="1010,90 1022,76 1034,102 1046,90" stroke="#FFD23F" stroke-width="2.5" stroke-linecap="round" stroke-linejoin="round" opacity="0.4"></polyline>
    <path d="M1050 90 Q1096 92 1128 96" stroke="#5A3EF0" stroke-width="2.5" stroke-linecap="round" opacity="0.16"></path>
    <circle cx="1148" cy="99" r="8.5" stroke="#5A3EF0" stroke-width="3" opacity="0.16"></circle>
    <g opacity="0.10">
      <circle cx="964" cy="232" r="4" fill="#5A3EF0"></circle>
      <path d="M972 231 Q1040 222 1102 226" stroke="#5A3EF0" stroke-width="2" stroke-linecap="round"></path>
      <path d="M1120 227 Q1136 229 1148 231" stroke="#5A3EF0" stroke-width="2" stroke-linecap="round"></path>
      <circle cx="1166" cy="234" r="7" stroke="#5A3EF0" stroke-width="3"></circle>
    </g>
  </g>
  <g transform="translate(72,56) scale(0.8125)">
    <path d="M179.3 64.4 A42 42 0 1 0 108.3 108.1" fill="none" stroke="#5A3EF0" stroke-width="26" stroke-linecap="round"></path>
  <circle cx="179.3" cy="64.4" r="20" fill="#5A3EF0"></circle>
  <path d="M177.4 141.9 A46 46 0 0 1 107 200.9" fill="none" stroke="#5A3EF0" stroke-width="26" stroke-linecap="round"></path>
  <circle cx="85.7" cy="177.8" r="22.5" fill="none" stroke="#5A3EF0" stroke-width="14"></circle>
  <polyline points="101,121 119,115 134,84 149,160 161,131 174,133" fill="none" stroke="#0A0718" stroke-width="19" stroke-linecap="round" stroke-linejoin="round" stroke-dasharray="178" stroke-dashoffset="0">
    <animate attributeName="stroke-dashoffset" values="178;0;0" keyTimes="0;0.3;1" calcMode="spline" keySplines="0.4 0 0.2 1;0 0 1 1" dur="4s" repeatCount="indefinite"></animate>
  </polyline>
  <polyline points="101,121 119,115 134,84 149,160 161,131 174,133" fill="none" stroke="#FFD23F" stroke-width="11" stroke-linecap="round" stroke-linejoin="round" stroke-dasharray="178" stroke-dashoffset="0">
    <animate attributeName="stroke-dashoffset" values="178;0;0" keyTimes="0;0.3;1" calcMode="spline" keySplines="0.4 0 0.2 1;0 0 1 1" dur="4s" repeatCount="indefinite"></animate>
  </polyline>
  </g>
  <text x="336" y="168" font-family="&#39;Space Grotesk&#39;, &#39;Helvetica Neue&#39;, Arial, sans-serif" font-size="88" font-weight="500" letter-spacing="-1.76" fill="#F3F0FF">synapse</text>
  <text x="340" y="220" font-family="&#39;Inter&#39;, -apple-system, BlinkMacSystemFont, &#39;Segoe UI&#39;, Roboto, sans-serif" font-size="26" font-weight="500" fill="#B7A8FF">More connections. Brighter thoughts.</text>
</svg>