<svg xmlns="http://www.w3.org/2000/svg" viewBox="0 0 1280 640">
  <defs>
    <linearGradient id="bg" x1="0" y1="0" x2="1" y2="1">
      <stop offset="0" stop-color="#131019"/>
      <stop offset="1" stop-color="#1D1630"/>
    </linearGradient>
  </defs>
  <!-- full-bleed background, no corner radius: unfurl clients round their own corners -->
  <rect x="0" y="0" width="1280" height="640" fill="url(#bg)"/>

  <!-- faint synaptic-edge motifs: filled sender dot, gapped edge, open receptor ring; sacrificial — may crop away outside the 64px safe area -->
  <g stroke="#8b5cf6" fill="none" opacity="0.16">
    <circle cx="916" cy="158" r="6" fill="#8b5cf6" stroke="none"/>
    <path d="M928 155 Q1040 124 1146 118" stroke-width="3" stroke-linecap="round"/>
    <path d="M1172 117 Q1200 116 1224 114" stroke-width="3" stroke-linecap="round"/>
    <circle cx="1250" cy="112" r="11" stroke-width="3"/>
  </g>
  <g stroke="#8b5cf6" fill="none" opacity="0.10">
    <circle cx="32" cy="622" r="6" fill="#8b5cf6" stroke="none"/>
    <path d="M44 619 Q112 606 174 599" stroke-width="2.5" stroke-linecap="round"/>
    <path d="M198 597 Q214 596 228 595" stroke-width="2.5" stroke-linecap="round"/>
    <circle cx="252" cy="593" r="10" stroke-width="3"/>
  </g>

  <!-- the mark: canonical icon.svg elements, byte-for-byte; transform centers the ink (not the viewBox) on x~640 -->
  <g transform="translate(487,44) scale(1.2)">
    <path d="M179.3 64.4 A42 42 0 1 0 108.3 108.2" fill="none" stroke="#8b5cf6" stroke-width="26" stroke-linecap="round"/>
    <circle cx="179.3" cy="64.4" r="20" fill="#8b5cf6"/>
    <path d="M177.4 141.9 A46 46 0 0 1 107.0 200.9" fill="none" stroke="#8b5cf6" stroke-width="26" stroke-linecap="round"/>
    <circle cx="85.7" cy="177.8" r="22.5" fill="none" stroke="#8b5cf6" stroke-width="14"/>
    <path d="M124.0 120.1 L143.1 113.9 A14 14 0 1 1 136.4 135.9 Z" fill="#CCFF00" stroke="#131019" stroke-width="5" stroke-linejoin="round"/>
  </g>

  <!-- wordmark + qualifier, one centered chunk on shared baseline y=458: Space Grotesk 500 with the engineered n-a cleft, then "for Obsidian" in Inter 500 -->
  <text x="640" y="458" text-anchor="middle" font-family="'Space Grotesk', 'Helvetica Neue', Arial, sans-serif" font-size="116" font-weight="500" letter-spacing="-2.32" fill="#F4F2FB">syn<tspan dx="8">apse</tspan><tspan dx="28" font-family="'Inter', -apple-system, BlinkMacSystemFont, 'Segoe UI', Roboto, sans-serif" font-size="40" letter-spacing="normal">for Obsidian</tspan></text>

  <!-- tagline -->
  <text x="640" y="544" text-anchor="middle" font-family="'Inter', -apple-system, BlinkMacSystemFont, 'Segoe UI', Roboto, sans-serif" font-size="36" font-weight="500" fill="#A78BFA">More connections. Brighter thoughts.</text>
</svg>
