<svg class="wd-av" width="512" height="512" viewBox="0 0 96 96" xmlns="http://www.w3.org/2000/svg" aria-hidden="true" focusable="false" stroke-linejoin="round"><g><line x1="63" y1="19" x2="72.5" y2="9.5" stroke="#5B2B0E" stroke-width="5" stroke-linecap="round"/><circle cx="75" cy="7" r="3.6" fill="#FFF3DC" stroke="#5B2B0E" stroke-width="3.5"/></g><rect x="10" y="14" width="76" height="76" rx="20" fill="#5B2B0E"/><rect x="10" y="10" width="76" height="76" rx="20" fill="#F7D98B" stroke="#5B2B0E" stroke-width="7"/><rect class="wd-av-pocket" x="20" y="20" width="14" height="14" rx="4.5" fill="#DEC37D"/><rect class="wd-av-pocket" x="41" y="20" width="14" height="14" rx="4.5" fill="#DEC37D"/><rect class="wd-av-pocket" x="62" y="20" width="14" height="14" rx="4.5" fill="#DEC37D"/><rect class="wd-av-pocket" x="41" y="41" width="14" height="14" rx="4.5" fill="#DEC37D"/><rect class="wd-av-pocket" x="20" y="62" width="14" height="14" rx="4.5" fill="#DEC37D"/><rect class="wd-av-pocket" x="41" y="62" width="14" height="14" rx="4.5" fill="#DEC37D"/><rect class="wd-av-pocket" x="62" y="62" width="14" height="14" rx="4.5" fill="#DEC37D"/><g><clipPath id="agent-lead-engineer-eye0"><rect x="20" y="41" width="14" height="14" rx="4.5"/></clipPath><g clip-path="url(#agent-lead-engineer-eye0)"><rect class="wd-av-eye" x="20" y="41" width="14" height="14" rx="4.5" fill="#FFF3DC"/><g><circle cx="27" cy="48" r="3.4" fill="#5B2B0E"/><circle cx="28.43" cy="46.57" r="1.16" fill="#FFF3DC"/></g></g><clipPath id="agent-lead-engineer-eye1"><rect x="62" y="41" width="14" height="14" rx="4.5"/></clipPath><g clip-path="url(#agent-lead-engineer-eye1)"><rect class="wd-av-eye" x="62" y="41" width="14" height="14" rx="4.5" fill="#FFF3DC"/><g><circle cx="69" cy="48" r="3.4" fill="#5B2B0E"/><circle cx="70.43" cy="46.57" r="1.16" fill="#FFF3DC"/></g></g></g><g><path d="M34 8 H62 Q72 8 72 16 Q72 24 62 24 H60 V36 Q60 41 55.5 41 Q51 41 51 36 V24 H43 V38 Q43 43 38.5 43 Q34 43 34 38 V24 Q24 24 24 16 Q24 8 34 8 Z" fill="#C9699E" stroke="#5B2B0E" stroke-width="5" stroke-linejoin="round"/><circle cx="38.5" cy="51" r="4" fill="#C9699E" stroke="#5B2B0E" stroke-width="4"/></g></svg>
