<svg class="wd-av" width="512" height="512" viewBox="0 0 96 96" xmlns="http://www.w3.org/2000/svg" aria-hidden="true" focusable="false" stroke-linejoin="round"><g><line x1="63" y1="19" x2="72.5" y2="9.5" stroke="#5B2B0E" stroke-width="5" stroke-linecap="round"/><circle cx="75" cy="7" r="3.6" fill="#FFF3DC" stroke="#5B2B0E" stroke-width="3.5"/></g><rect x="10" y="14" width="76" height="76" rx="20" fill="#5B2B0E"/><rect x="10" y="10" width="76" height="76" rx="20" fill="#F5C752" stroke="#5B2B0E" stroke-width="7"/><rect class="wd-av-skill" x="20" y="20" width="14" height="14" rx="4.5" fill="#C49F42"/><rect class="wd-av-skill" x="41" y="20" width="14" height="14" rx="4.5" fill="#C49F42"/><rect class="wd-av-pocket" x="62" y="20" width="14" height="14" rx="4.5" fill="#DDB34A"/><rect class="wd-av-pocket" x="41" y="41" width="14" height="14" rx="4.5" fill="#DDB34A"/><rect class="wd-av-skill" x="20" y="62" width="14" height="14" rx="4.5" fill="#C49F42"/><rect class="wd-av-skill" x="41" y="62" width="14" height="14" rx="4.5" fill="#C49F42"/><rect class="wd-av-pocket" x="62" y="62" width="14" height="14" rx="4.5" fill="#DDB34A"/><g><clipPath id="agent-plugin-architect-eye0"><rect x="20" y="41" width="14" height="14" rx="4.5"/></clipPath><g clip-path="url(#agent-plugin-architect-eye0)"><rect class="wd-av-eye" x="20" y="41" width="14" height="14" rx="4.5" fill="#FFF3DC"/><g><circle cx="27" cy="47" r="3.57" fill="#5B2B0E"/><circle cx="28.5" cy="45.5" r="1.21" fill="#FFF3DC"/></g><path d="M18.4 39.4 L35.6 39.4 L35.6 40.5 L18.4 47.1 Z" fill="#F5C752"/><path d="M18.4 47.1 L35.6 40.5" fill="none" stroke="#5B2B0E" stroke-width="1.8" stroke-linecap="round"/></g><clipPath id="agent-plugin-architect-eye1"><rect x="62" y="41" width="14" height="14" rx="4.5"/></clipPath><g clip-path="url(#agent-plugin-architect-eye1)"><rect class="wd-av-eye" x="62" y="41" width="14" height="14" rx="4.5" fill="#FFF3DC"/><g><circle cx="69" cy="47" r="3.57" fill="#5B2B0E"/><circle cx="70.5" cy="45.5" r="1.21" fill="#FFF3DC"/></g><path d="M60.4 39.4 L77.6 39.4 L77.6 47.1 L60.4 40.5 Z" fill="#F5C752"/><path d="M60.4 40.5 L77.6 47.1" fill="none" stroke="#5B2B0E" stroke-width="1.8" stroke-linecap="round"/></g></g><g><path d="M34 8 H62 Q72 8 72 16 Q72 24 62 24 H60 V45 Q60 50 55.5 50 Q51 50 51 45 V24 H43 V34 Q43 39 38.5 39 Q34 39 34 34 V24 Q24 24 24 16 Q24 8 34 8 Z" fill="#35A878" stroke="#5B2B0E" stroke-width="5" stroke-linejoin="round"/><circle cx="55.5" cy="58" r="4" fill="#35A878" stroke="#5B2B0E" stroke-width="4"/></g></svg>
