<svg class="wd-av" width="512" height="512" viewBox="0 0 96 96" xmlns="http://www.w3.org/2000/svg" aria-hidden="true" focusable="false" stroke-linejoin="round"><g><line x1="63" y1="19" x2="72.5" y2="9.5" stroke="#5B2B0E" stroke-width="5" stroke-linecap="round"/><circle cx="75" cy="7" r="3.6" fill="#FFF3DC" stroke="#5B2B0E" stroke-width="3.5"/></g><rect x="10" y="14" width="76" height="76" rx="20" fill="#5B2B0E"/><rect x="10" y="10" width="76" height="76" rx="20" fill="#C98A3C" stroke="#5B2B0E" stroke-width="7"/><rect class="wd-av-skill" x="20" y="20" width="14" height="14" rx="4.5" fill="#A16E30"/><rect class="wd-av-skill" x="41" y="20" width="14" height="14" rx="4.5" fill="#A16E30"/><rect class="wd-av-pocket" x="62" y="20" width="14" height="14" rx="4.5" fill="#B57C36"/><rect class="wd-av-skill" x="41" y="41" width="14" height="14" rx="4.5" fill="#A16E30"/><rect class="wd-av-skill" x="20" y="62" width="14" height="14" rx="4.5" fill="#A16E30"/><rect class="wd-av-skill" x="41" y="62" width="14" height="14" rx="4.5" fill="#A16E30"/><rect class="wd-av-pocket" x="62" y="62" width="14" height="14" rx="4.5" fill="#B57C36"/><g><clipPath id="agent-project-manager-eye0"><rect x="20" y="41" width="14" height="14" rx="4.5"/></clipPath><g clip-path="url(#agent-project-manager-eye0)"><rect class="wd-av-eye" x="20" y="41" width="14" height="14" rx="4.5" fill="#FFF3DC"/><g><circle cx="27" cy="48.8" r="3.23" fill="#5B2B0E"/><circle cx="28.36" cy="47.44" r="1.1" fill="#FFF3DC"/></g><path d="M18.4 39.4 L35.6 39.4 L35.6 46.02 L18.4 49.98 Z" fill="#C98A3C"/><path d="M18.4 49.98 L35.6 46.02" fill="none" stroke="#5B2B0E" stroke-width="1.8" stroke-linecap="round"/></g><clipPath id="agent-project-manager-eye1"><rect x="62" y="41" width="14" height="14" rx="4.5"/></clipPath><g clip-path="url(#agent-project-manager-eye1)"><rect class="wd-av-eye" x="62" y="41" width="14" height="14" rx="4.5" fill="#FFF3DC"/><g><circle cx="69" cy="48.8" r="3.23" fill="#5B2B0E"/><circle cx="70.36" cy="47.44" r="1.1" fill="#FFF3DC"/></g><path d="M60.4 39.4 L77.6 39.4 L77.6 49.98 L60.4 46.02 Z" fill="#C98A3C"/><path d="M60.4 46.02 L77.6 49.98" fill="none" stroke="#5B2B0E" stroke-width="1.8" stroke-linecap="round"/></g></g><g><path d="M34 8 H62 Q72 8 72 16 Q72 24 62 24 H60 V34 Q60 39 55.5 39 Q51 39 51 34 V24 H43 V45 Q43 50 38.5 50 Q34 50 34 45 V24 Q24 24 24 16 Q24 8 34 8 Z" fill="#35A878" stroke="#5B2B0E" stroke-width="5" stroke-linejoin="round"/><circle cx="38.5" cy="58" r="4" fill="#35A878" stroke="#5B2B0E" stroke-width="4"/></g></svg>
