<svg xmlns="http://www.w3.org/2000/svg" viewBox="0 0 100 100">
  <g transform="translate(-1 -7.5) scale(1.08)">
    <path d="M24 70 a16 14 0 0 1 -2 -26 a13 13 0 0 1 6 -16 a14 13 0 0 1 18 -2 a14 13 0 0 1 18 2 a13 13 0 0 1 6 16 a16 14 0 0 1 -2 26 a16 16 0 0 1 -22 4 a16 16 0 0 1 -22 -4 Z" fill="none" stroke="currentColor" stroke-width="8" stroke-linecap="round" stroke-linejoin="round"/>
    <path d="M50 25 V37 M50 63 V76" fill="none" stroke="currentColor" stroke-width="7" stroke-linecap="round" stroke-linejoin="round"/>
    <path d="M30 51 L43 51 L49 42 L56 59 L62 51 L70 51" fill="none" stroke="currentColor" stroke-width="8.5" stroke-linecap="round" stroke-linejoin="round"/>
  </g>
</svg>
